<svg xmlns="http://www.w3.org/2000/svg" viewBox="0 0 256 256" role="img" aria-label="railway-deploy icon">
  <defs>
    <linearGradient id="bg" x1="0" y1="0" x2="1" y2="1">
      <stop offset="0%" stop-color="#0b1220"/>
      <stop offset="100%" stop-color="#1e293b"/>
    </linearGradient>
    <linearGradient id="rail" x1="0" y1="0" x2="1" y2="1">
      <stop offset="0%" stop-color="#22d3ee"/>
      <stop offset="100%" stop-color="#38bdf8"/>
    </linearGradient>
    <linearGradient id="rocket" x1="0" y1="0" x2="0" y2="1">
      <stop offset="0%" stop-color="#f8fafc"/>
      <stop offset="100%" stop-color="#cbd5e1"/>
    </linearGradient>
    <linearGradient id="flame" x1="0" y1="0" x2="0" y2="1">
      <stop offset="0%" stop-color="#f59e0b"/>
      <stop offset="100%" stop-color="#ef4444"/>
    </linearGradient>
  </defs>

  <rect x="12" y="12" width="232" height="232" rx="52" fill="url(#bg)"/>

  <path d="M42 186c28-26 54-38 86-38s58 12 86 38" fill="none" stroke="url(#rail)" stroke-width="12" stroke-linecap="round"/>
  <path d="M58 210c22-20 45-30 70-30s48 10 70 30" fill="none" stroke="#67e8f9" stroke-opacity="0.8" stroke-width="8" stroke-linecap="round"/>

  <g transform="translate(128 88)">
    <path d="M0-38c16 0 31 14 31 31 0 18-11 35-31 55-20-20-31-37-31-55 0-17 15-31 31-31z" fill="url(#rocket)"/>
    <circle cx="0" cy="-10" r="7" fill="#0ea5e9"/>
    <path d="M-11 31h22L0 55z" fill="url(#flame)"/>
    <path d="M-31 3l-14 10 10 12 8-10z" fill="#94a3b8"/>
    <path d="M31 3l14 10-10 12-8-10z" fill="#94a3b8"/>
  </g>

  <text x="128" y="232" text-anchor="middle" font-size="20" font-family="ui-sans-serif, system-ui, -apple-system, Segoe UI, Roboto, Helvetica, Arial" fill="#dbeafe" letter-spacing="1.5">RAILWAY DEPLOY</text>
</svg>
